<mxfile host="app.diagrams.net" agent="Mozilla/5.0 (Windows NT 10.0; Win64; x64) AppleWebKit/537.36 (KHTML, like Gecko) Chrome/134.0.0.0 Safari/537.36" version="26.1.1">
  <diagram name="페이지-1" id="g2MAqH2UUVeFImmgU57O">
    <mxGraphModel dx="1434" dy="772" grid="1" gridSize="10" guides="1" tooltips="1" connect="1" arrows="1" fold="1" page="1" pageScale="1" pageWidth="827" pageHeight="1169" math="0" shadow="0">
      <root>
        <mxCell id="0" />
        <mxCell id="1" parent="0" />
        <mxCell id="WlPlCMzRFnkumvLCKoVt-96" value="" style="rounded=0;whiteSpace=wrap;html=1;" vertex="1" parent="1">
          <mxGeometry x="557" y="120" width="270" height="480" as="geometry" />
        </mxCell>
        <mxCell id="WlPlCMzRFnkumvLCKoVt-2" value="&lt;font style=&quot;font-size: 20px;&quot;&gt;FIFO_TX&lt;/font&gt;" style="whiteSpace=wrap;html=1;aspect=fixed;" vertex="1" parent="1">
          <mxGeometry x="170" y="170" width="150" height="150" as="geometry" />
        </mxCell>
        <mxCell id="WlPlCMzRFnkumvLCKoVt-3" value="&lt;font style=&quot;font-size: 20px;&quot;&gt;FIFO_RX&lt;/font&gt;" style="whiteSpace=wrap;html=1;aspect=fixed;" vertex="1" parent="1">
          <mxGeometry x="170" y="420" width="150" height="150" as="geometry" />
        </mxCell>
        <mxCell id="WlPlCMzRFnkumvLCKoVt-4" value="&lt;font style=&quot;font-size: 20px;&quot;&gt;RX&lt;/font&gt;" style="whiteSpace=wrap;html=1;aspect=fixed;" vertex="1" parent="1">
          <mxGeometry x="620" y="420" width="150" height="150" as="geometry" />
        </mxCell>
        <mxCell id="WlPlCMzRFnkumvLCKoVt-89" style="edgeStyle=orthogonalEdgeStyle;rounded=0;orthogonalLoop=1;jettySize=auto;html=1;" edge="1" parent="1">
          <mxGeometry relative="1" as="geometry">
            <mxPoint x="840" y="240" as="targetPoint" />
            <mxPoint x="770" y="240" as="sourcePoint" />
          </mxGeometry>
        </mxCell>
        <mxCell id="WlPlCMzRFnkumvLCKoVt-5" value="&lt;font style=&quot;font-size: 20px;&quot;&gt;TX&lt;/font&gt;" style="whiteSpace=wrap;html=1;aspect=fixed;" vertex="1" parent="1">
          <mxGeometry x="620" y="170" width="150" height="150" as="geometry" />
        </mxCell>
        <mxCell id="WlPlCMzRFnkumvLCKoVt-6" value="" style="endArrow=classic;html=1;rounded=0;entryX=0;entryY=0.2;entryDx=0;entryDy=0;entryPerimeter=0;" edge="1" parent="1" target="WlPlCMzRFnkumvLCKoVt-5">
          <mxGeometry width="50" height="50" relative="1" as="geometry">
            <mxPoint x="320" y="200" as="sourcePoint" />
            <mxPoint x="370" y="150" as="targetPoint" />
          </mxGeometry>
        </mxCell>
        <mxCell id="WlPlCMzRFnkumvLCKoVt-7" value="" style="triangle;whiteSpace=wrap;html=1;" vertex="1" parent="1">
          <mxGeometry x="460" y="220" width="26" height="40" as="geometry" />
        </mxCell>
        <mxCell id="WlPlCMzRFnkumvLCKoVt-8" value="" style="ellipse;whiteSpace=wrap;html=1;aspect=fixed;" vertex="1" parent="1">
          <mxGeometry x="486" y="235" width="10" height="10" as="geometry" />
        </mxCell>
        <mxCell id="WlPlCMzRFnkumvLCKoVt-29" value="" style="triangle;whiteSpace=wrap;html=1;direction=west;" vertex="1" parent="1">
          <mxGeometry x="465" y="260" width="26" height="40" as="geometry" />
        </mxCell>
        <mxCell id="WlPlCMzRFnkumvLCKoVt-30" value="" style="ellipse;whiteSpace=wrap;html=1;aspect=fixed;" vertex="1" parent="1">
          <mxGeometry x="455" y="275" width="10" height="10" as="geometry" />
        </mxCell>
        <mxCell id="WlPlCMzRFnkumvLCKoVt-33" value="" style="triangle;whiteSpace=wrap;html=1;direction=north;" vertex="1" parent="1">
          <mxGeometry x="100" y="360" width="40" height="26" as="geometry" />
        </mxCell>
        <mxCell id="WlPlCMzRFnkumvLCKoVt-34" value="" style="ellipse;whiteSpace=wrap;html=1;aspect=fixed;" vertex="1" parent="1">
          <mxGeometry x="115" y="350" width="10" height="10" as="geometry" />
        </mxCell>
        <mxCell id="WlPlCMzRFnkumvLCKoVt-35" value="" style="endArrow=classic;html=1;rounded=0;entryX=0;entryY=0.5;entryDx=0;entryDy=0;" edge="1" parent="1" target="WlPlCMzRFnkumvLCKoVt-7">
          <mxGeometry width="50" height="50" relative="1" as="geometry">
            <mxPoint x="320" y="240" as="sourcePoint" />
            <mxPoint x="410" y="240" as="targetPoint" />
          </mxGeometry>
        </mxCell>
        <mxCell id="WlPlCMzRFnkumvLCKoVt-36" value="" style="endArrow=classic;html=1;rounded=0;entryX=0;entryY=0.467;entryDx=0;entryDy=0;entryPerimeter=0;" edge="1" parent="1" target="WlPlCMzRFnkumvLCKoVt-5">
          <mxGeometry width="50" height="50" relative="1" as="geometry">
            <mxPoint x="496" y="240" as="sourcePoint" />
            <mxPoint x="546" y="190" as="targetPoint" />
          </mxGeometry>
        </mxCell>
        <mxCell id="WlPlCMzRFnkumvLCKoVt-37" value="" style="endArrow=classic;html=1;rounded=0;entryX=0;entryY=0.5;entryDx=0;entryDy=0;exitX=0.002;exitY=0.734;exitDx=0;exitDy=0;exitPerimeter=0;" edge="1" parent="1" source="WlPlCMzRFnkumvLCKoVt-5" target="WlPlCMzRFnkumvLCKoVt-29">
          <mxGeometry width="50" height="50" relative="1" as="geometry">
            <mxPoint x="600" y="280" as="sourcePoint" />
            <mxPoint x="600" y="260" as="targetPoint" />
          </mxGeometry>
        </mxCell>
        <mxCell id="WlPlCMzRFnkumvLCKoVt-38" value="" style="endArrow=classic;html=1;rounded=0;entryX=1;entryY=0.733;entryDx=0;entryDy=0;entryPerimeter=0;exitX=0;exitY=0.5;exitDx=0;exitDy=0;" edge="1" parent="1" source="WlPlCMzRFnkumvLCKoVt-30" target="WlPlCMzRFnkumvLCKoVt-2">
          <mxGeometry width="50" height="50" relative="1" as="geometry">
            <mxPoint x="363.5" y="320" as="sourcePoint" />
            <mxPoint x="413.5" y="270" as="targetPoint" />
          </mxGeometry>
        </mxCell>
        <mxCell id="WlPlCMzRFnkumvLCKoVt-39" value="" style="endArrow=none;html=1;rounded=0;" edge="1" parent="1">
          <mxGeometry width="50" height="50" relative="1" as="geometry">
            <mxPoint x="450" y="210" as="sourcePoint" />
            <mxPoint x="470" y="190" as="targetPoint" />
          </mxGeometry>
        </mxCell>
        <mxCell id="WlPlCMzRFnkumvLCKoVt-40" value="8" style="text;html=1;align=center;verticalAlign=middle;whiteSpace=wrap;rounded=0;" vertex="1" parent="1">
          <mxGeometry x="420" y="170" width="60" height="30" as="geometry" />
        </mxCell>
        <mxCell id="WlPlCMzRFnkumvLCKoVt-41" value="rdata" style="text;html=1;align=center;verticalAlign=middle;whiteSpace=wrap;rounded=0;" vertex="1" parent="1">
          <mxGeometry x="320" y="170" width="60" height="30" as="geometry" />
        </mxCell>
        <mxCell id="WlPlCMzRFnkumvLCKoVt-42" value="empty" style="text;html=1;align=center;verticalAlign=middle;whiteSpace=wrap;rounded=0;" vertex="1" parent="1">
          <mxGeometry x="320" y="210" width="60" height="30" as="geometry" />
        </mxCell>
        <mxCell id="WlPlCMzRFnkumvLCKoVt-43" value="rd" style="text;html=1;align=center;verticalAlign=middle;whiteSpace=wrap;rounded=0;" vertex="1" parent="1">
          <mxGeometry x="320" y="250" width="60" height="30" as="geometry" />
        </mxCell>
        <mxCell id="WlPlCMzRFnkumvLCKoVt-44" value="tx_data" style="text;html=1;align=center;verticalAlign=middle;whiteSpace=wrap;rounded=0;" vertex="1" parent="1">
          <mxGeometry x="560" y="170" width="60" height="30" as="geometry" />
        </mxCell>
        <mxCell id="WlPlCMzRFnkumvLCKoVt-45" value="tx_start" style="text;html=1;align=center;verticalAlign=middle;whiteSpace=wrap;rounded=0;" vertex="1" parent="1">
          <mxGeometry x="560" y="210" width="60" height="30" as="geometry" />
        </mxCell>
        <mxCell id="WlPlCMzRFnkumvLCKoVt-46" value="tx_done" style="text;html=1;align=center;verticalAlign=middle;whiteSpace=wrap;rounded=0;" vertex="1" parent="1">
          <mxGeometry x="560" y="250" width="60" height="30" as="geometry" />
        </mxCell>
        <mxCell id="WlPlCMzRFnkumvLCKoVt-47" value="" style="endArrow=classic;html=1;rounded=0;exitX=-0.007;exitY=0.14;exitDx=0;exitDy=0;exitPerimeter=0;" edge="1" parent="1">
          <mxGeometry width="50" height="50" relative="1" as="geometry">
            <mxPoint x="620" y="461" as="sourcePoint" />
            <mxPoint x="320" y="460" as="targetPoint" />
          </mxGeometry>
        </mxCell>
        <mxCell id="WlPlCMzRFnkumvLCKoVt-48" value="" style="endArrow=classic;html=1;rounded=0;exitX=-0.007;exitY=0.14;exitDx=0;exitDy=0;exitPerimeter=0;" edge="1" parent="1">
          <mxGeometry width="50" height="50" relative="1" as="geometry">
            <mxPoint x="620" y="536" as="sourcePoint" />
            <mxPoint x="320" y="535" as="targetPoint" />
          </mxGeometry>
        </mxCell>
        <mxCell id="WlPlCMzRFnkumvLCKoVt-49" value="wdata" style="text;html=1;align=center;verticalAlign=middle;whiteSpace=wrap;rounded=0;" vertex="1" parent="1">
          <mxGeometry x="320" y="430" width="60" height="30" as="geometry" />
        </mxCell>
        <mxCell id="WlPlCMzRFnkumvLCKoVt-50" value="wr" style="text;html=1;align=center;verticalAlign=middle;whiteSpace=wrap;rounded=0;" vertex="1" parent="1">
          <mxGeometry x="320" y="505" width="60" height="30" as="geometry" />
        </mxCell>
        <mxCell id="WlPlCMzRFnkumvLCKoVt-51" value="rx_data" style="text;html=1;align=center;verticalAlign=middle;whiteSpace=wrap;rounded=0;" vertex="1" parent="1">
          <mxGeometry x="560" y="430" width="60" height="30" as="geometry" />
        </mxCell>
        <mxCell id="WlPlCMzRFnkumvLCKoVt-52" value="rx_done" style="text;html=1;align=center;verticalAlign=middle;whiteSpace=wrap;rounded=0;" vertex="1" parent="1">
          <mxGeometry x="560" y="505" width="60" height="30" as="geometry" />
        </mxCell>
        <mxCell id="WlPlCMzRFnkumvLCKoVt-53" value="" style="endArrow=none;html=1;rounded=0;" edge="1" parent="1">
          <mxGeometry width="50" height="50" relative="1" as="geometry">
            <mxPoint x="450" y="470" as="sourcePoint" />
            <mxPoint x="470" y="450" as="targetPoint" />
          </mxGeometry>
        </mxCell>
        <mxCell id="WlPlCMzRFnkumvLCKoVt-54" value="8" style="text;html=1;align=center;verticalAlign=middle;whiteSpace=wrap;rounded=0;" vertex="1" parent="1">
          <mxGeometry x="420" y="430" width="60" height="30" as="geometry" />
        </mxCell>
        <mxCell id="WlPlCMzRFnkumvLCKoVt-69" value="" style="endArrow=classic;html=1;rounded=0;exitX=-0.005;exitY=0.393;exitDx=0;exitDy=0;exitPerimeter=0;" edge="1" parent="1" source="WlPlCMzRFnkumvLCKoVt-3">
          <mxGeometry width="50" height="50" relative="1" as="geometry">
            <mxPoint x="120" y="480" as="sourcePoint" />
            <mxPoint x="120" y="386" as="targetPoint" />
            <Array as="points">
              <mxPoint x="120" y="479" />
            </Array>
          </mxGeometry>
        </mxCell>
        <mxCell id="WlPlCMzRFnkumvLCKoVt-70" value="" style="endArrow=classic;html=1;rounded=0;entryX=0;entryY=0.733;entryDx=0;entryDy=0;entryPerimeter=0;" edge="1" parent="1" target="WlPlCMzRFnkumvLCKoVt-2">
          <mxGeometry width="50" height="50" relative="1" as="geometry">
            <mxPoint x="120" y="350" as="sourcePoint" />
            <mxPoint x="120" y="280" as="targetPoint" />
            <Array as="points">
              <mxPoint x="120" y="280" />
            </Array>
          </mxGeometry>
        </mxCell>
        <mxCell id="WlPlCMzRFnkumvLCKoVt-71" value="" style="endArrow=classic;html=1;rounded=0;exitX=0;exitY=0.467;exitDx=0;exitDy=0;exitPerimeter=0;entryX=0;entryY=0.5;entryDx=0;entryDy=0;" edge="1" parent="1" source="WlPlCMzRFnkumvLCKoVt-2" target="WlPlCMzRFnkumvLCKoVt-74">
          <mxGeometry width="50" height="50" relative="1" as="geometry">
            <mxPoint x="100" y="245" as="sourcePoint" />
            <mxPoint x="80" y="240" as="targetPoint" />
            <Array as="points">
              <mxPoint x="80" y="240" />
            </Array>
          </mxGeometry>
        </mxCell>
        <mxCell id="WlPlCMzRFnkumvLCKoVt-72" value="wr" style="text;html=1;align=center;verticalAlign=middle;whiteSpace=wrap;rounded=0;" vertex="1" parent="1">
          <mxGeometry x="110" y="250" width="60" height="30" as="geometry" />
        </mxCell>
        <mxCell id="WlPlCMzRFnkumvLCKoVt-73" value="full" style="text;html=1;align=center;verticalAlign=middle;whiteSpace=wrap;rounded=0;" vertex="1" parent="1">
          <mxGeometry x="110" y="450" width="60" height="30" as="geometry" />
        </mxCell>
        <mxCell id="WlPlCMzRFnkumvLCKoVt-74" value="" style="triangle;whiteSpace=wrap;html=1;direction=south;" vertex="1" parent="1">
          <mxGeometry x="60" y="360" width="40" height="26" as="geometry" />
        </mxCell>
        <mxCell id="WlPlCMzRFnkumvLCKoVt-75" value="" style="ellipse;whiteSpace=wrap;html=1;aspect=fixed;" vertex="1" parent="1">
          <mxGeometry x="75" y="386" width="10" height="10" as="geometry" />
        </mxCell>
        <mxCell id="WlPlCMzRFnkumvLCKoVt-76" value="" style="endArrow=classic;html=1;rounded=0;entryX=0;entryY=0.667;entryDx=0;entryDy=0;entryPerimeter=0;exitX=0.5;exitY=1;exitDx=0;exitDy=0;" edge="1" parent="1" source="WlPlCMzRFnkumvLCKoVt-75" target="WlPlCMzRFnkumvLCKoVt-3">
          <mxGeometry width="50" height="50" relative="1" as="geometry">
            <mxPoint x="80" y="400" as="sourcePoint" />
            <mxPoint x="125" y="510" as="targetPoint" />
            <Array as="points">
              <mxPoint x="80" y="520" />
            </Array>
          </mxGeometry>
        </mxCell>
        <mxCell id="WlPlCMzRFnkumvLCKoVt-77" value="full" style="text;html=1;align=center;verticalAlign=middle;whiteSpace=wrap;rounded=0;" vertex="1" parent="1">
          <mxGeometry x="110" y="210" width="60" height="30" as="geometry" />
        </mxCell>
        <mxCell id="WlPlCMzRFnkumvLCKoVt-78" value="rd" style="text;html=1;align=center;verticalAlign=middle;whiteSpace=wrap;rounded=0;" vertex="1" parent="1">
          <mxGeometry x="110" y="490" width="60" height="30" as="geometry" />
        </mxCell>
        <mxCell id="WlPlCMzRFnkumvLCKoVt-79" value="" style="endArrow=classic;html=1;rounded=0;exitX=0;exitY=0.2;exitDx=0;exitDy=0;exitPerimeter=0;entryX=0;entryY=0.2;entryDx=0;entryDy=0;entryPerimeter=0;" edge="1" parent="1" target="WlPlCMzRFnkumvLCKoVt-2">
          <mxGeometry width="50" height="50" relative="1" as="geometry">
            <mxPoint x="170" y="560.0000000000001" as="sourcePoint" />
            <mxPoint x="40" y="200" as="targetPoint" />
            <Array as="points">
              <mxPoint x="40" y="560" />
              <mxPoint x="40" y="200" />
            </Array>
          </mxGeometry>
        </mxCell>
        <mxCell id="WlPlCMzRFnkumvLCKoVt-83" value="" style="endArrow=none;html=1;rounded=0;" edge="1" parent="1">
          <mxGeometry width="50" height="50" relative="1" as="geometry">
            <mxPoint x="30" y="370" as="sourcePoint" />
            <mxPoint x="50" y="350" as="targetPoint" />
          </mxGeometry>
        </mxCell>
        <mxCell id="WlPlCMzRFnkumvLCKoVt-84" value="8" style="text;html=1;align=center;verticalAlign=middle;whiteSpace=wrap;rounded=0;" vertex="1" parent="1">
          <mxGeometry y="330" width="60" height="30" as="geometry" />
        </mxCell>
        <mxCell id="WlPlCMzRFnkumvLCKoVt-85" value="wdata" style="text;html=1;align=center;verticalAlign=middle;whiteSpace=wrap;rounded=0;" vertex="1" parent="1">
          <mxGeometry x="110" y="170" width="60" height="30" as="geometry" />
        </mxCell>
        <mxCell id="WlPlCMzRFnkumvLCKoVt-86" value="rdata" style="text;html=1;align=center;verticalAlign=middle;whiteSpace=wrap;rounded=0;" vertex="1" parent="1">
          <mxGeometry x="110" y="530" width="60" height="30" as="geometry" />
        </mxCell>
        <mxCell id="WlPlCMzRFnkumvLCKoVt-91" value="fifo_tx" style="text;html=1;align=center;verticalAlign=middle;whiteSpace=wrap;rounded=0;" vertex="1" parent="1">
          <mxGeometry x="760" y="215" width="60" height="30" as="geometry" />
        </mxCell>
        <mxCell id="WlPlCMzRFnkumvLCKoVt-93" value="fifo_rx" style="text;html=1;align=center;verticalAlign=middle;whiteSpace=wrap;rounded=0;" vertex="1" parent="1">
          <mxGeometry x="760" y="470" width="60" height="30" as="geometry" />
        </mxCell>
        <mxCell id="WlPlCMzRFnkumvLCKoVt-94" value="" style="endArrow=classic;html=1;rounded=0;entryX=1;entryY=0.5;entryDx=0;entryDy=0;" edge="1" parent="1" target="WlPlCMzRFnkumvLCKoVt-4">
          <mxGeometry width="50" height="50" relative="1" as="geometry">
            <mxPoint x="840" y="495" as="sourcePoint" />
            <mxPoint x="890" y="455" as="targetPoint" />
          </mxGeometry>
        </mxCell>
        <mxCell id="WlPlCMzRFnkumvLCKoVt-97" value="&lt;font style=&quot;font-size: 20px;&quot;&gt;UART&lt;/font&gt;" style="text;html=1;align=center;verticalAlign=middle;whiteSpace=wrap;rounded=0;" vertex="1" parent="1">
          <mxGeometry x="665" y="130" width="60" height="30" as="geometry" />
        </mxCell>
      </root>
    </mxGraphModel>
  </diagram>
</mxfile>
